HIERARCHY
ROOT joint_Root
{
	OFFSET 0.0 0.0 0.0
	CHANNELS 6 Xposition Yposition Zposition Zrotation Xrotation Yrotation 
	JOINT Hips
	{
		OFFSET -17.1583 93.1646 452.98
		CHANNELS 6 Xposition Yposition Zposition Zrotation Xrotation Yrotation 
		JOINT Spine
		{
			OFFSET 15.7357 0.0 0.0
			CHANNELS 6 Xposition Yposition Zposition Zrotation Xrotation Yrotation 
			JOINT Chest
			{
				OFFSET 8.98455 -0.406207 0.0
				CHANNELS 6 Xposition Yposition Zposition Zrotation Xrotation Yrotation 
				JOINT Neck
				{
					OFFSET 16.3773 0.0 0.0
					CHANNELS 6 Xposition Yposition Zposition Zrotation Xrotation Yrotation 
					JOINT Head
					{
						OFFSET 6.45672 0.0 0.0
						CHANNELS 6 Xposition Yposition Zposition Zrotation Xrotation Yrotation 
						End Site
						{
							OFFSET 0.0 0.0 0.0
						}
					}
				}
				JOINT Shoulder_L
				{
					OFFSET 12.9942 -0.242716 4.98039
					CHANNELS 6 Xposition Yposition Zposition Zrotation Xrotation Yrotation 
					JOINT UpperArm_L
					{
						OFFSET 5.34809 0.0 0.0
						CHANNELS 6 Xposition Yposition Zposition Zrotation Xrotation Yrotation 
						JOINT LowerArm_L
						{
							OFFSET 24.3286 1.87007e-05 0.0
							CHANNELS 6 Xposition Yposition Zposition Zrotation Xrotation Yrotation 
							JOINT Hand_L
							{
								OFFSET 22.2916 0.0 0.0
								CHANNELS 6 Xposition Yposition Zposition Zrotation Xrotation Yrotation 
								End Site
								{
									OFFSET 0.0 0.0 0.0
								}
							}
						}
					}
				}
				JOINT Shoulder_R
				{
					OFFSET 12.9945 -0.242716 -4.98039
					CHANNELS 6 Xposition Yposition Zposition Zrotation Xrotation Yrotation 
					JOINT UpperArm_R
					{
						OFFSET -5.34813 0.0 0.0
						CHANNELS 6 Xposition Yposition Zposition Zrotation Xrotation Yrotation 
						JOINT LowerArm_R
						{
							OFFSET -24.3289 0.000322201 0.0
							CHANNELS 6 Xposition Yposition Zposition Zrotation Xrotation Yrotation 
							JOINT Hand_R
							{
								OFFSET -22.2915 -0.000108084 0.0
								CHANNELS 6 Xposition Yposition Zposition Zrotation Xrotation Yrotation 
								End Site
								{
									OFFSET 0.0 0.0 0.0
								}
							}
						}
					}
				}
			}
		}
		JOINT UpperLeg_L
		{
			OFFSET -2.19248 -6.46944 0.0
			CHANNELS 6 Xposition Yposition Zposition Zrotation Xrotation Yrotation 
			JOINT LowerLeg_L
			{
				OFFSET 39.0811 0.0 -1.23785e-05
				CHANNELS 6 Xposition Yposition Zposition Zrotation Xrotation Yrotation 
				JOINT Foot_L
				{
					OFFSET 40.9854 0.0 -1.26872e-05
					CHANNELS 6 Xposition Yposition Zposition Zrotation Xrotation Yrotation 
					JOINT Toes_L
					{
						OFFSET 11.7543 0.0 0.0
						CHANNELS 6 Xposition Yposition Zposition Zrotation Xrotation Yrotation 
						End Site
						{
							OFFSET 0.0 0.0 0.0
						}
					}
				}
			}
		}
		JOINT UpperLeg_R
		{
			OFFSET -2.19251 6.46944 0.0
			CHANNELS 6 Xposition Yposition Zposition Zrotation Xrotation Yrotation 
			JOINT LowerLeg_R
			{
				OFFSET -39.0811 -0.00228153 -0.0401928
				CHANNELS 6 Xposition Yposition Zposition Zrotation Xrotation Yrotation 
				JOINT Foot_R
				{
					OFFSET -40.9854 0.0 0.0
					CHANNELS 6 Xposition Yposition Zposition Zrotation Xrotation Yrotation 
					JOINT Toes_R
					{
						OFFSET -11.7543 0.0 0.0
						CHANNELS 6 Xposition Yposition Zposition Zrotation Xrotation Yrotation 
						End Site
						{
							OFFSET 0.0 0.0 0.0
						}
					}
				}
			}
		}
	}
}
MOTION
Frames:	4
Frame Time:	0.0333333
0.000000 0.000000 0.000000 0.000000 0.000000 -0.000000 2.185440 84.371600 -397.740000 87.418000 -4.274430 -20.971500 15.735700 0.000005 -0.000001 106.645000 81.677700 -104.554000 8.984550 -0.406207 -0.000000 8.118320 4.752990 3.841390 16.377300 -0.000001 -0.000001 -13.472100 3.045100 -0.476733 6.456720 -0.000001 -0.000000 -4.744680 3.453710 -4.345960 12.994200 -0.242716 4.980390 -91.721700 5.540090 -72.705000 5.348090 -0.000007 -0.000001 -62.570900 -13.224200 14.662700 24.328600 0.000019 0.000005 2.934000 52.153800 -3.713560 22.291600 -0.000001 0.000005 -3.129420 4.602840 14.840400 12.994500 -0.242716 -4.980390 90.067900 -0.315171 -77.848700 -5.348130 -0.000001 -0.000004 -64.420800 18.513200 -18.977100 -24.328900 0.000322 -0.000009 2.999380 0.970260 -72.240100 -22.291500 -0.000108 -0.000004 13.025100 5.407250 -3.176960 -2.192480 -6.469440 -0.000000 -179.185000 -3.855930 -51.891100 39.081100 -0.000007 -0.000012 0.051849 0.002832 93.115400 40.985400 -0.000006 -0.000013 0.905532 -1.345620 -54.350800 11.754300 -0.000000 0.000003 0.001388 0.028071 -15.438100 -2.192510 6.469440 -0.000001 -175.248000 0.538214 153.503000 -39.081100 -0.002282 -0.040193 0.031961 -0.024217 49.855200 -40.985400 0.000008 0.000006 -5.813450 1.892640 -88.464600 -11.754300 -0.000006 -0.000006 0.001812 0.040096 -14.946700
0.000000 0.000000 0.000000 0.000000 0.000000 -0.000000 2.660980 87.050200 -390.061000 89.959500 -4.047150 -22.750900 15.735700 0.000005 -0.000001 109.985000 82.240700 -109.095000 8.984550 -0.406207 -0.000000 6.799620 5.279080 1.466160 16.377300 -0.000001 -0.000001 -13.569400 2.326540 -0.352365 6.456720 -0.000001 -0.000000 -4.823350 1.778080 -3.188140 12.994200 -0.242716 4.980390 -91.383900 4.250020 -71.943500 5.348090 -0.000007 -0.000001 -56.058300 -15.554000 20.431300 24.328600 0.000019 0.000005 3.718710 46.319900 -5.136750 22.291600 -0.000001 0.000005 -0.199500 4.416270 17.949100 12.994500 -0.242716 -4.980390 90.046100 -0.221150 -78.215700 -5.348130 -0.000001 -0.000004 -63.382300 14.830100 -20.097400 -24.328900 0.000322 -0.000009 -1.850140 -0.198984 -83.649300 -22.291500 -0.000108 -0.000004 12.999500 5.452700 -4.736440 -2.192480 -6.469440 -0.000000 178.087000 -0.743776 -58.020800 39.081100 -0.000007 -0.000012 -0.009654 0.000574 86.645000 40.985400 -0.000006 -0.000013 0.798660 -3.137850 -61.428300 11.754300 -0.000000 0.000003 0.001403 0.028460 -15.422300 -2.192510 6.469440 -0.000001 -178.488000 2.614340 161.985000 -39.081100 -0.002282 -0.040193 0.033962 -0.040477 37.156700 -40.985400 0.000008 0.000006 -5.792450 1.890360 -79.847100 -11.754300 -0.000006 -0.000006 -0.006827 -0.078172 -19.755300
0.000000 0.000000 0.000000 0.000000 0.000000 -0.000000 3.107950 89.881900 -382.109000 92.815200 -3.324180 -25.351300 15.735700 0.000005 -0.000001 113.488000 83.336400 -113.815000 8.984550 -0.406207 -0.000000 4.487720 5.311930 -0.861367 16.377300 -0.000001 -0.000001 -13.272800 1.426110 -0.325518 6.456720 -0.000001 -0.000000 -4.406510 0.042961 -1.623100 12.994200 -0.242716 4.980390 -90.833900 2.590340 -72.152000 5.348090 -0.000007 -0.000001 -49.511900 -19.786100 25.402600 24.328600 0.000019 0.000005 3.356120 40.300100 -5.179530 22.291600 -0.000001 0.000005 5.165270 4.349370 19.002500 12.994500 -0.242716 -4.980390 90.161600 -0.811135 -78.730300 -5.348130 -0.000001 -0.000004 -64.110000 11.426400 -18.645500 -24.328900 0.000322 -0.000009 -7.029930 0.070082 -90.536800 -22.291500 -0.000108 -0.000004 14.135200 5.593620 -10.856700 -2.192480 -6.469440 -0.000000 175.913000 2.659600 -61.625700 39.081100 -0.000007 -0.000012 -0.019335 0.005271 74.768100 40.985400 -0.000006 -0.000013 -1.106200 -3.686140 -66.116400 11.754300 -0.000000 0.000003 0.001798 0.039683 -14.967000 -2.192510 6.469440 -0.000001 178.798000 5.037030 168.944000 -39.081100 -0.002282 -0.040193 0.025322 -0.050036 23.741600 -40.985400 0.000008 0.000006 -3.945810 -0.261307 -64.521200 -11.754300 -0.000006 -0.000006 -0.042137 -0.268519 -27.609600
0.000000 0.000000 0.000000 0.000000 0.000000 -0.000000 3.260670 92.212600 -374.172000 94.479800 -2.056860 -28.009900 15.735700 0.000005 -0.000001 119.108000 84.380200 -120.190000 8.984550 -0.406207 -0.000000 2.116470 5.517230 -2.263870 16.377300 -0.000001 -0.000001 -13.253000 0.448656 -0.581167 6.456720 -0.000001 -0.000000 -3.608530 -1.785080 0.019253 12.994200 -0.242716 4.980390 -90.500900 1.610240 -72.718200 5.348090 -0.000007 -0.000001 -43.857100 -23.214100 27.920300 24.328600 0.000019 0.000005 2.134320 32.771700 -3.937940 22.291600 -0.000001 0.000005 14.017400 4.056290 23.239900 12.994500 -0.242716 -4.980390 90.208800 -1.074830 -79.006300 -5.348130 -0.000001 -0.000004 -64.941100 9.106580 -15.808700 -24.328900 0.000322 -0.000009 -11.549900 0.683867 -93.339400 -22.291500 -0.000108 -0.000004 18.354600 5.681960 -18.667400 -2.192480 -6.469440 -0.000000 175.583000 5.100900 -62.458100 39.081100 -0.000007 -0.000012 -0.012690 0.007596 59.111400 40.985400 -0.000006 -0.000013 -1.793150 0.799557 -69.291100 11.754300 -0.000000 0.000003 0.001813 0.040150 -14.948100 -2.192510 6.469440 -0.000001 178.234000 9.957070 173.495000 -39.081100 -0.002282 -0.040193 0.015298 -0.052167 12.917100 -40.985400 0.000008 0.000006 0.813172 -0.443100 -44.624400 -11.754300 -0.000006 -0.000006 -0.072268 -0.369733 -31.891800
